<svg width="21" height="20" viewBox="0 0 21 20" fill="none" xmlns="http://www.w3.org/2000/svg">
<path d="M16.75 5.6L11.25 2.42C10.79 2.15 10.21 2.15 9.75 2.42L4.25 5.6C3.79 5.87 3.5 6.36 3.5 6.9V13.25C3.5 13.79 3.79 14.28 4.25 14.55L9.75 17.73C10.21 18 10.79 18 11.25 17.73L16.75 14.55C17.21 14.28 17.5 13.79 17.5 13.25V6.9C17.5 6.36 17.21 5.87 16.75 5.6V5.6ZM5.5 12.96V8.34L9.5 10.66V15.27L5.5 12.96V12.96ZM10.5 8.93L6.5 6.61L10.5 4.3L14.5 6.61L10.5 8.93ZM11.5 15.27V10.66L15.5 8.34V12.96L11.5 15.27ZM5.5 0H2C1.17 0 0.5 0.67 0.5 1.5V5H2.5V2H5.5V0ZM15.5 0H19C19.83 0 20.5 0.67 20.5 1.5V5H18.5V2H15.5V0ZM5.5 20H2C1.17 20 0.5 19.33 0.5 18.5V15H2.5V18H5.5V20ZM15.5 20H19C19.83 20 20.5 19.33 20.5 18.5V15H18.5V18H15.5V20Z" fill="white"/>
</svg>
