<svg width="21" height="19" viewBox="0 0 21 19" fill="none" xmlns="http://www.w3.org/2000/svg">
<path d="M9.15 17.8L7.425 16.225C5.65833 14.6083 4.06267 13.004 2.638 11.412C1.21267 9.82066 0.5 8.06666 0.5 6.14999C0.5 4.58333 1.025 3.27499 2.075 2.22499C3.125 1.17499 4.43333 0.649994 6 0.649994C6.88333 0.649994 7.71667 0.837327 8.5 1.21199C9.28333 1.58733 9.95 2.09999 10.5 2.74999C11.05 2.09999 11.7167 1.58733 12.5 1.21199C13.2833 0.837327 14.1167 0.649994 15 0.649994C16.5667 0.649994 17.875 1.17499 18.925 2.22499C19.975 3.27499 20.5 4.58333 20.5 6.14999C20.5 8.06666 19.7917 9.82499 18.375 11.425C16.9583 13.025 15.35 14.6333 13.55 16.25L11.85 17.8C11.4667 18.1667 11.0167 18.35 10.5 18.35C9.98333 18.35 9.53333 18.1667 9.15 17.8ZM9.55 4.74999C9.06667 4.06666 8.55 3.54566 8 3.18699C7.45 2.82899 6.78333 2.64999 6 2.64999C5 2.64999 4.16667 2.98333 3.5 3.64999C2.83333 4.31666 2.5 5.14999 2.5 6.14999C2.5 7.01666 2.80833 7.93733 3.425 8.91199C4.04167 9.88733 4.77933 10.8333 5.638 11.75C6.496 12.6667 7.37933 13.525 8.288 14.325C9.196 15.125 9.93333 15.7833 10.5 16.3C11.0667 15.7833 11.8043 15.125 12.713 14.325C13.621 13.525 14.5043 12.6667 15.363 11.75C16.221 10.8333 16.9583 9.88733 17.575 8.91199C18.1917 7.93733 18.5 7.01666 18.5 6.14999C18.5 5.14999 18.1667 4.31666 17.5 3.64999C16.8333 2.98333 16 2.64999 15 2.64999C14.2167 2.64999 13.55 2.82899 13 3.18699C12.45 3.54566 11.9333 4.06666 11.45 4.74999C11.3333 4.91666 11.1917 5.04166 11.025 5.12499C10.8583 5.20833 10.6833 5.24999 10.5 5.24999C10.3167 5.24999 10.1417 5.20833 9.975 5.12499C9.80833 5.04166 9.66667 4.91666 9.55 4.74999Z" fill="#757A78"/>
</svg>
