<svg width="21" height="19" viewBox="0 0 21 19" fill="none" xmlns="http://www.w3.org/2000/svg">
<path d="M9.15 17.8L7.425 16.225C5.65833 14.6083 4.06267 13.004 2.638 11.412C1.21267 9.82066 0.5 8.06666 0.5 6.14999C0.5 4.58333 1.025 3.27499 2.075 2.22499C3.125 1.17499 4.43333 0.649994 6 0.649994C6.88333 0.649994 7.71667 0.837327 8.5 1.21199C9.28333 1.58733 9.95 2.09999 10.5 2.74999C11.05 2.09999 11.7167 1.58733 12.5 1.21199C13.2833 0.837327 14.1167 0.649994 15 0.649994C16.5667 0.649994 17.875 1.17499 18.925 2.22499C19.975 3.27499 20.5 4.58333 20.5 6.14999C20.5 8.06666 19.7917 9.82499 18.375 11.425C16.9583 13.025 15.35 14.6333 13.55 16.25L11.85 17.8C11.4667 18.15 11.0167 18.325 10.5 18.325C9.98333 18.325 9.53333 18.15 9.15 17.8Z" fill="#323834"/>
</svg>
