<svg width="25" height="32" viewBox="0 0 25 32" fill="none" xmlns="http://www.w3.org/2000/svg">
<mask id="path-1-inside-1_301_276" fill="white">
<ellipse cx="19.9124" cy="24.6407" rx="2.61672" ry="5.88762" transform="rotate(-28.1891 19.9124 24.6407)"/>
</mask>
<path d="M18.6932 25.2942C19.2601 26.3519 19.4849 27.246 19.5207 27.7309C19.5391 27.9788 19.4943 27.9305 19.5735 27.6898C19.6617 27.422 19.9754 26.7486 20.8041 26.3044L24.5831 33.3556C26.0487 32.5701 26.8135 31.2811 27.172 30.1924C27.5217 29.1307 27.5666 28.0561 27.499 27.1413C27.3629 25.3006 26.7134 23.3233 25.7443 21.5151L18.6932 25.2942ZM20.8041 26.3044C21.6328 25.8603 22.3672 25.972 22.639 26.0468C22.8834 26.1141 22.8988 26.1782 22.7025 26.0256C22.3185 25.7273 21.6985 25.0451 21.1316 23.9873L14.0805 27.7663C15.0496 29.5745 16.3365 31.2103 17.7939 32.3427C18.5182 32.9055 19.4379 33.4632 20.5156 33.7599C21.6207 34.0641 23.1175 34.1411 24.5831 33.3556L20.8041 26.3044ZM21.1316 23.9873C20.5647 22.9295 20.3399 22.0355 20.3041 21.5506C20.2857 21.3026 20.3305 21.3509 20.2513 21.5916C20.1631 21.8594 19.8494 22.5328 19.0207 22.977L15.2417 15.9258C13.7761 16.7113 13.0113 18.0004 12.6528 19.0891C12.3031 20.1507 12.2582 21.2254 12.3258 22.1402C12.4618 23.9808 13.1114 25.9581 14.0805 27.7663L21.1316 23.9873ZM19.0207 22.977C18.192 23.4211 17.4576 23.3094 17.1858 23.2346C16.9414 23.1673 16.926 23.1033 17.1223 23.2558C17.5063 23.5542 18.1263 24.2364 18.6932 25.2942L25.7443 21.5151C24.7752 19.7069 23.4883 18.0712 22.0309 16.9387C21.3066 16.3759 20.3869 15.8182 19.3092 15.5215C18.2041 15.2173 16.7073 15.1403 15.2417 15.9258L19.0207 22.977Z" fill="#4E5B62" mask="url(#path-1-inside-1_301_276)"/>
<circle cx="11.7752" cy="11.7752" r="10.2752" stroke="white" stroke-width="3"/>
</svg>
